<svg id="Capa_1" enable-background="new 0 0 512 512" height="512" viewBox="0 0 512 512" width="512" xmlns="http://www.w3.org/2000/svg" xmlns:xlink="http://www.w3.org/1999/xlink"><linearGradient id="SVGID_1_" gradientUnits="userSpaceOnUse" x1="453.605" x2="-8.166" y1="388.994" y2="124.461"><stop offset=".0023" stop-color="#ffc599"/><stop offset=".992" stop-color="#ffe8dc" stop-opacity="0"/></linearGradient><g><path d="m192.663 0c-39.223 0-74.182 22.903-91.892 57.9-4.74 9.368-11.512 18.548-21.144 26.373-38.525 31.302-15.78 79.458 31.839 108.352s6.686 91.497 45.211 235.966 89.089 72.234 120.391 0c22.327-51.524 82.754-117.355 115.569-150.869 14.075-14.374 21.92-33.711 21.92-53.828v-.535c0-21.635 9.435-41.911 25.064-56.871 18.129-17.353 27.063-46.698-54.201-79.806-67.72-27.59-104.741-49.954-124.671-65.052-18.34-13.893-40.602-21.63-63.609-21.63z" fill="url(#SVGID_1_)"/><g><path d="m435.276 306.971c-1.836-2.884-5.017-4.631-8.436-4.631h-157.297v-116.491h157.297c3.419 0 6.601-1.747 8.436-4.631l19.172-30.122c2.085-3.276 2.085-7.463 0-10.739l-19.172-30.122c-1.836-2.884-5.017-4.631-8.436-4.631h-157.297v-29.517c0-2.761-2.239-5-5-5h-17.089c-2.761 0-5 2.239-5 5v128.093h-157.296c-3.419 0-6.601 1.747-8.436 4.631l-19.172 30.122c-2.085 3.276-2.085 7.463 0 10.739l19.172 30.122c1.836 2.884 5.017 4.631 8.436 4.631h157.297v193.489c0 2.761 2.239 5 5 5h17.089c2.761 0 5-2.239 5-5v-95.328h157.296c3.419 0 6.601-1.747 8.436-4.631l19.172-30.122c2.085-3.276 2.085-7.463 0-10.739z" fill="#00c" opacity=".1"/><g><g><path d="m426.84 161.849h-168.95v-80.244h168.95c3.419 0 6.601 1.747 8.436 4.631l19.172 30.122c2.085 3.276 2.085 7.463 0 10.739l-19.172 30.122c-1.835 2.884-5.017 4.63-8.436 4.63z" fill="#ffab66"/><path d="m335.104 161.849h-41.389v-54.96c0-2.761 2.239-5 5-5h31.389c2.761 0 5 2.239 5 5z" fill="#ffd6bb"/></g><path d="m426.84 358.585h-168.95v-80.245h168.95c3.419 0 6.601 1.747 8.436 4.631l19.172 30.122c2.085 3.276 2.085 7.463 0 10.739l-19.172 30.122c-1.835 2.884-5.017 4.631-8.436 4.631z" fill="#fff"/><g><path d="m85.158 260.424h168.95v-80.244h-168.95c-3.419 0-6.601 1.747-8.436 4.631l-19.172 30.122c-2.085 3.276-2.085 7.463 0 10.739l19.172 30.122c1.835 2.884 5.017 4.63 8.436 4.63z" fill="#ff4d4d"/><path d="m142.235 180.18h-57.077c-3.419 0-6.601 1.746-8.436 4.631l-19.172 30.122c-2.085 3.276-2.085 7.463 0 10.739l19.172 30.122c1.836 2.884 5.017 4.631 8.436 4.631h57.078v-80.245z" fill="#ffc599"/></g></g><path d="m269.543 458.913h-27.089v-406.826c0-2.761 2.239-5 5-5h17.089c2.761 0 5 2.239 5 5z" fill="#4d4dff"/><path d="m269.543 115.673v-63.586c0-2.761-2.239-5-5-5h-17.089c-2.761 0-5 2.239-5 5v63.587h27.089z" fill="#ffab66"/><path d="m242.455 412.846h27.089v46.067h-27.089z" fill="#ffab66"/><g fill="#00c"><path d="m458.666 310.408-19.172-30.123c-2.769-4.349-7.499-6.945-12.654-6.945h-152.296v-186.736h152.296c1.719 0 3.296.866 4.219 2.315l19.171 30.122c1.038 1.631 1.039 3.738.001 5.369l-19.172 30.122c-.923 1.45-2.5 2.316-4.219 2.316h-121.007c-2.762 0-5 2.238-5 5s2.238 5 5 5h121.007c5.155 0 9.886-2.597 12.654-6.946l19.172-30.123c3.114-4.892 3.114-11.214 0-16.107l-19.172-30.122c-2.769-4.349-7.499-6.945-12.654-6.945h-152.296v-24.518c0-5.514-4.486-10-10-10h-17.09c-5.514 0-10 4.486-10 10v123.093h-152.295c-5.148 0-9.879 2.594-12.658 6.945l-19.175 30.127c-3.105 4.896-3.104 11.217.005 16.103l19.17 30.121c2.769 4.349 7.501 6.944 12.658 6.944h157.3c2.762 0 5-2.238 5-5 0-.074-.002-.148-.005-.223v-208.11h17.09v406.826c0 2.762 2.238 5 5 5s5-2.238 5-5v-95.328h152.296c5.155 0 9.886-2.597 12.654-6.946l19.173-30.122c3.113-4.893 3.113-11.216-.001-16.109zm-221.212-54.988h-152.295c-1.721 0-3.3-.865-4.223-2.314l-19.169-30.119c-1.036-1.63-1.035-3.74-.001-5.372l19.166-30.113c.929-1.453 2.509-2.321 4.227-2.321h152.295zm212.776 65.727-19.172 30.121c-.923 1.45-2.5 2.316-4.219 2.316h-152.295v-70.244h152.296c1.719 0 3.296.866 4.219 2.315l19.171 30.122c1.037 1.631 1.037 3.74 0 5.37z"/><path d="m242.454 291.71c-2.762 0-5 2.238-5 5v162.203c0 2.762 2.238 5 5 5s5-2.238 5-5v-162.203c0-2.762-2.238-5-5-5z"/></g><g fill="#ff8b00"><path d="m185.721 320.295h-13.794c-2.762 0-5 2.238-5 5s2.238 5 5 5h1.723l-5.258 5.258c-1.953 1.952-1.953 5.118 0 7.07.976.977 2.256 1.465 3.535 1.465s2.56-.488 3.535-1.465l5.259-5.259v1.724c0 2.762 2.238 5 5 5s5-2.238 5-5v-13.793c0-2.762-2.239-5-5-5z"/><path d="m192.603 102.089h-13.794c-2.762 0-5 2.238-5 5s2.238 5 5 5h1.723l-5.258 5.258c-1.953 1.952-1.953 5.118 0 7.07.976.977 2.256 1.465 3.535 1.465s2.56-.488 3.535-1.465l5.259-5.259v1.724c0 2.762 2.238 5 5 5s5-2.238 5-5v-13.793c0-2.762-2.238-5-5-5z"/><path d="m323.278 412.184h-13.794c-2.762 0-5 2.238-5 5s2.238 5 5 5h1.723l-5.258 5.258c-1.953 1.952-1.953 5.118 0 7.07.976.977 2.256 1.465 3.535 1.465s2.56-.488 3.535-1.465l5.259-5.259v1.724c0 2.762 2.238 5 5 5s5-2.238 5-5v-13.793c0-2.762-2.238-5-5-5z"/></g><path d="m408.745 219.648h-1.723l5.258-5.258c1.953-1.952 1.953-5.118 0-7.07-1.951-1.953-5.119-1.953-7.07 0l-5.259 5.259v-1.724c0-2.762-2.238-5-5-5s-5 2.238-5 5v13.793c0 2.762 2.238 5 5 5h13.794c2.762 0 5-2.238 5-5s-2.238-5-5-5z" fill="#4d4dff"/><path d="m154.895 94.316h-1.723l5.258-5.258c1.953-1.952 1.953-5.118 0-7.07-1.951-1.953-5.119-1.953-7.07 0l-5.258 5.258v-1.723c0-2.762-2.238-5-5-5s-5 2.238-5 5v13.793c0 2.762 2.238 5 5 5h13.793c2.762 0 5-2.238 5-5s-2.238-5-5-5z" fill="#ff4d4d"/><g><g><g><path d="m352.654 119.942c-2.761 0-5-2.238-5-5v-8.053c0-2.762 2.239-5 5-5s5 2.238 5 5v8.053c0 2.761-2.239 5-5 5z" fill="#ff4d4d"/></g><g><path d="m369.548 119.942c-2.761 0-5-2.238-5-5v-8.053c0-2.762 2.239-5 5-5s5 2.238 5 5v8.053c0 2.761-2.239 5-5 5z" fill="#ff4d4d"/></g><g><path d="m386.441 119.942c-2.761 0-5-2.238-5-5v-8.053c0-2.762 2.239-5 5-5s5 2.238 5 5v8.053c0 2.761-2.238 5-5 5z" fill="#ff4d4d"/></g><g><path d="m403.335 119.942c-2.761 0-5-2.238-5-5v-8.053c0-2.762 2.239-5 5-5s5 2.238 5 5v8.053c0 2.761-2.239 5-5 5z" fill="#ff4d4d"/></g></g><g><g><path d="m335.761 143.968c-2.761 0-5-2.238-5-5v-8.053c0-2.762 2.239-5 5-5s5 2.238 5 5v8.053c0 2.762-2.239 5-5 5z" fill="#ff4d4d"/></g><g><path d="m352.654 143.968c-2.761 0-5-2.238-5-5v-8.053c0-2.762 2.239-5 5-5s5 2.238 5 5v8.053c0 2.762-2.239 5-5 5z" fill="#ff4d4d"/></g><g><path d="m369.548 143.968c-2.761 0-5-2.238-5-5v-8.053c0-2.762 2.239-5 5-5s5 2.238 5 5v8.053c0 2.762-2.239 5-5 5z" fill="#ff4d4d"/></g><g><path d="m386.441 143.968c-2.761 0-5-2.238-5-5v-8.053c0-2.762 2.239-5 5-5s5 2.238 5 5v8.053c0 2.762-2.238 5-5 5z" fill="#ff4d4d"/></g></g></g><g><g><g><path d="m329.123 315.476c-2.761 0-5-2.238-5-5v-8.053c0-2.762 2.239-5 5-5s5 2.238 5 5v8.053c0 2.761-2.239 5-5 5z" fill="#4d4dff"/></g><g><path d="m346.016 315.476c-2.761 0-5-2.238-5-5v-8.053c0-2.762 2.239-5 5-5s5 2.238 5 5v8.053c0 2.761-2.238 5-5 5z" fill="#4d4dff"/></g><g><path d="m362.91 315.476c-2.761 0-5-2.238-5-5v-8.053c0-2.762 2.239-5 5-5s5 2.238 5 5v8.053c0 2.761-2.239 5-5 5z" fill="#4d4dff"/></g></g><g><g><path d="m312.229 339.502c-2.761 0-5-2.238-5-5v-8.053c0-2.762 2.239-5 5-5s5 2.238 5 5v8.053c0 2.762-2.238 5-5 5z" fill="#4d4dff"/></g><g><path d="m329.123 339.502c-2.761 0-5-2.238-5-5v-8.053c0-2.762 2.239-5 5-5s5 2.238 5 5v8.053c0 2.762-2.239 5-5 5z" fill="#4d4dff"/></g><g><path d="m346.016 339.502c-2.761 0-5-2.238-5-5v-8.053c0-2.762 2.239-5 5-5s5 2.238 5 5v8.053c0 2.762-2.238 5-5 5z" fill="#4d4dff"/></g><g><path d="m362.91 339.502c-2.761 0-5-2.238-5-5v-8.053c0-2.762 2.239-5 5-5s5 2.238 5 5v8.053c0 2.762-2.239 5-5 5z" fill="#4d4dff"/></g></g></g><circle cx="398.83" cy="318.462" fill="#ff4d4d" r="18.771"/><g><g><g><g><path d="m172.951 242.587c-2.761 0-5-2.238-5-5v-8.053c0-2.762 2.239-5 5-5s5 2.238 5 5v8.053c0 2.761-2.239 5-5 5z" fill="#b3b3ff"/></g><g><path d="m189.845 242.587c-2.761 0-5-2.238-5-5v-8.053c0-2.762 2.239-5 5-5s5 2.238 5 5v8.053c0 2.761-2.239 5-5 5z" fill="#b3b3ff"/></g><g><path d="m206.738 242.587c-2.761 0-5-2.238-5-5v-8.053c0-2.762 2.239-5 5-5s5 2.238 5 5v8.053c0 2.761-2.239 5-5 5z" fill="#b3b3ff"/></g></g></g><path d="m212.881 215.816h-104.876c-2.761 0-5-2.239-5-5v-7.798c0-2.761 2.239-5 5-5h104.876c2.761 0 5 2.239 5 5v7.798c0 2.761-2.239 5-5 5z" fill="#fff"/></g></g></g></svg>